<svg version="1.1" id="Layer_1" xmlns="http://www.w3.org/2000/svg" xmlns:xlink="http://www.w3.org/1999/xlink" x="0px" y="0px" width="212.795px" height="220.59px" viewBox="0 0 212.795 220.59" enable-background="new 0 0 212.795 220.59" xml:space="preserve">
<path fill="#34495E" d="M36.715,205.031L36.715,205.031c-4.933,0-8.933-3.999-8.933-8.933V24.492c0-4.934,4-8.933,8.933-8.933
	c4.934,0,8.933,3.999,8.933,8.933v171.606C45.648,201.032,41.649,205.031,36.715,205.031" id="id_101"></path>
<path fill="#10003B" d="M36.715,207.031c-6.028,0-10.933-4.904-10.933-10.933V24.493c0-6.029,4.905-10.934,10.933-10.934
	c6.028,0,10.933,4.904,10.933,10.934v171.605C47.648,202.126,42.743,207.031,36.715,207.031 M36.715,17.559
	c-3.822,0-6.933,3.11-6.933,6.934v171.605c0,3.822,3.111,6.933,6.933,6.933c3.822,0,6.933-3.11,6.933-6.933V24.493
	C43.648,20.669,40.537,17.559,36.715,17.559" id="id_102"></path>
<polygon fill="#d45252" points="188.52,137.935 45.647,137.935 45.647,28.337 188.52,28.337 141.192,83.136 " id="id_103"></polygon>
<path fill="#10003B" d="M188.52,139.935H45.647c-1.104,0-2-0.896-2-2V28.337c0-1.104,0.896-2,2-2H188.52
	c0.782,0,1.493,0.456,1.818,1.168c0.327,0.711,0.207,1.547-0.304,2.14l-46.199,53.491l46.199,53.491
	c0.511,0.593,0.631,1.429,0.304,2.14C190.013,139.479,189.302,139.935,188.52,139.935 M47.647,135.935h136.502l-44.472-51.491
	c-0.648-0.751-0.648-1.863,0-2.614l44.472-51.492H47.647V135.935z" id="id_104"></path>
<path fill="#10003B" d="M131.748,43.827H86.075c-1.104,0-2-0.896-2-2c0-1.104,0.896-2,2-2h45.673c1.104,0,2,0.896,2,2
	C133.748,42.931,132.852,43.827,131.748,43.827" id="id_105"></path>
<path fill="#10003B" d="M75.19,43.827H60.754c-1.104,0-2-0.896-2-2c0-1.104,0.896-2,2-2H75.19c1.104,0,2,0.896,2,2
	C77.19,42.931,76.294,43.827,75.19,43.827" id="id_106"></path>
<path fill="#10003B" d="M58.389,107.247c-1.104,0-2-0.896-2-2V69.514c0-1.105,0.896-2,2-2s2,0.895,2,2v35.732
	C60.389,106.351,59.493,107.247,58.389,107.247" id="id_107"></path>
</svg>