<?xml version="1.0" encoding="iso-8859-1"?>
<!-- Generator: Adobe Illustrator 19.0.0, SVG Export Plug-In . SVG Version: 6.00 Build 0)  -->
<svg version="1.1" id="Layer_1" xmlns="http://www.w3.org/2000/svg" xmlns:xlink="http://www.w3.org/1999/xlink" x="0px" y="0px"
	 viewBox="0 0 455 455" style="enable-background:new 0 0 455 455;" xml:space="preserve">
<g>
	<rect y="67.5" width="236.5" height="148"/>
	<path d="M0,332.5h35.135c6.887-31.412,34.915-55,68.365-55s61.477,23.588,68.365,55H236.5v-87H0V332.5z"/>
	<path d="M103.5,307.5c-22.056,0-40,17.944-40,40s17.944,40,40,40s40-17.944,40-40S125.556,307.5,103.5,307.5z"/>
	<path d="M351.5,307.5c-22.056,0-40,17.944-40,40s17.944,40,40,40s40-17.944,40-40S373.556,307.5,351.5,307.5z"/>
	<path d="M355,67.5h-88.5v265h16.635c6.887-31.412,34.915-55,68.365-55s61.477,23.588,68.365,55H455v-139L355,67.5z"/>
</g>
<g>
</g>
<g>
</g>
<g>
</g>
<g>
</g>
<g>
</g>
<g>
</g>
<g>
</g>
<g>
</g>
<g>
</g>
<g>
</g>
<g>
</g>
<g>
</g>
<g>
</g>
<g>
</g>
<g>
</g>
</svg>
