<?xml version="1.0" encoding="UTF-8" standalone="no"?> <svg width="64" height="64" viewBox="0 0 64 64" fill="none" xmlns="http://www.w3.org/2000/svg">
<path d="M32 56.87C33.1255 56.8728 34.2347 56.6011 35.2315 56.0783C36.2282 55.5555 37.0824 54.7975 37.72 53.87C44.58 44.16 52.72 31.04 52.72 23.71C52.72 18.2068 50.5338 12.9289 46.6424 9.03756C42.7511 5.14618 37.4732 2.96002 31.97 2.96002C26.4667 2.96002 21.1889 5.14618 17.2975 9.03756C13.4061 12.9289 11.22 18.2068 11.22 23.71C11.22 31.04 19.39 44.16 26.22 53.87C26.8632 54.806 27.727 55.5692 28.735 56.0924C29.743 56.6156 30.8643 56.8827 32 56.87ZM45.71 23.57C45.71 26.2816 44.9059 28.9323 43.3994 31.1869C41.8929 33.4415 39.7517 35.1987 37.2466 36.2364C34.7414 37.2741 31.9848 37.5456 29.3253 37.0166C26.6658 36.4876 24.2229 35.1818 22.3055 33.2645C20.3882 31.3471 19.0824 28.9042 18.5534 26.2447C18.0244 23.5852 18.2959 20.8286 19.3336 18.3234C20.3713 15.8183 22.1285 13.677 24.3831 12.1706C26.6377 10.6641 29.2884 9.86002 32 9.86002C35.6345 9.86531 39.1186 11.3115 41.6886 13.8814C44.2585 16.4514 45.7047 19.9355 45.71 23.57V23.57Z" fill="#EF5B5B"/>
<path d="M46.4499 49.26C46.3186 49.2351 46.1837 49.2362 46.0528 49.2634C45.9219 49.2906 45.7977 49.3434 45.6872 49.4186C45.5767 49.4938 45.4821 49.59 45.4088 49.7018C45.3355 49.8136 45.2849 49.9387 45.2599 50.07C45.235 50.2013 45.2361 50.3363 45.2633 50.4672C45.2905 50.598 45.3433 50.7223 45.4185 50.8328C45.4937 50.9433 45.5899 51.0379 45.7017 51.1112C45.8135 51.1845 45.9386 51.2351 46.0699 51.26C52.2199 52.48 53.5699 54.04 53.5699 54.54C53.5699 55.62 49.2199 57.98 38.7299 58.78C34.2497 59.12 29.7502 59.12 25.2699 58.78C14.7799 57.98 10.4299 55.62 10.4299 54.54C10.4299 54.04 11.7799 52.48 17.9299 51.26C18.1951 51.2096 18.4295 51.0559 18.5814 50.8328C18.7333 50.6096 18.7903 50.3352 18.7399 50.07C18.6895 49.8048 18.5359 49.5705 18.3127 49.4186C18.0895 49.2667 17.8151 49.2096 17.5499 49.26C13.3899 50.08 8.42993 51.65 8.42993 54.5C8.42993 59.1 21.1999 60.44 25.1099 60.74C27.3199 60.91 29.6399 61 31.9999 61C34.3599 61 36.6799 60.91 38.8899 60.74C42.7999 60.44 55.5699 59.1 55.5699 54.5C55.5699 51.65 50.6099 50.08 46.4499 49.26Z" fill="black"/>
<path d="M27.1299 17.25V17.71H27.0499C26.4233 17.7114 25.8163 17.929 25.3317 18.3262C24.847 18.7235 24.5143 19.2758 24.3899 19.89L22.5299 29.18C22.4517 29.5738 22.4616 29.98 22.5589 30.3695C22.6563 30.759 22.8386 31.1221 23.0929 31.4328C23.3472 31.7435 23.6671 31.994 24.0297 32.1664C24.3922 32.3388 24.7885 32.4288 25.1899 32.43H38.8099C39.2114 32.4288 39.6076 32.3388 39.9702 32.1664C40.3328 31.994 40.6527 31.7435 40.9069 31.4328C41.1612 31.1221 41.3436 30.759 41.4409 30.3695C41.5382 29.98 41.5482 29.5738 41.4699 29.18L39.6099 19.89C39.4873 19.2841 39.162 18.7381 38.6876 18.3418C38.2132 17.9456 37.6179 17.7227 36.9999 17.71H36.9199V17.25C36.9199 15.9584 36.4068 14.7197 35.4935 13.8064C34.5802 12.8931 33.3415 12.38 32.0499 12.38C30.7583 12.38 29.5196 12.8931 28.6063 13.8064C27.693 14.7197 27.1799 15.9584 27.1799 17.25H27.1299ZM34.8699 17.25V17.71H29.1299V17.25C29.1299 16.8731 29.2042 16.4999 29.3484 16.1517C29.4926 15.8035 29.704 15.4871 29.9705 15.2206C30.237 14.9541 30.5534 14.7427 30.9016 14.5985C31.2498 14.4542 31.623 14.38 31.9999 14.38C32.3768 14.38 32.75 14.4542 33.0982 14.5985C33.4464 14.7427 33.7628 14.9541 34.0293 15.2206C34.2958 15.4871 34.5072 15.8035 34.6515 16.1517C34.7957 16.4999 34.8699 16.8731 34.8699 17.25V17.25Z" fill="#0C120C"/>
</svg>
